<svg xmlns="http://www.w3.org/2000/svg" xmlns:xlink="http://www.w3.org/1999/xlink" width="1800" zoomAndPan="magnify" viewBox="0 0 1350 449.999984" height="600" preserveAspectRatio="xMidYMid meet" version="1.0"><defs><filter x="0%" y="0%" width="100%" height="100%" id="3c3a1d45ad"><feColorMatrix values="0 0 0 0 1 0 0 0 0 1 0 0 0 0 1 0 0 0 1 0" color-interpolation-filters="sRGB"/></filter><g/><mask id="2b3bbd4ae6"><g filter="url(#3c3a1d45ad)"><rect x="-135" width="1620" fill="#000000" y="-44.999998" height="539.99998" fill-opacity="0.0588"/></g></mask><clipPath id="6ec20bfee3"><path d="M 362 17 L 412.898438 17 L 412.898438 22 L 362 22 Z M 362 17 " clip-rule="nonzero"/></clipPath><clipPath id="17261fa344"><path d="M 291 46 L 412.898438 46 L 412.898438 51 L 291 51 Z M 291 46 " clip-rule="nonzero"/></clipPath><clipPath id="d9064e0f3b"><path d="M 221 75 L 412.898438 75 L 412.898438 80 L 221 80 Z M 221 75 " clip-rule="nonzero"/></clipPath><clipPath id="33f9a57e67"><path d="M 150 105 L 412.898438 105 L 412.898438 110 L 150 110 Z M 150 105 " clip-rule="nonzero"/></clipPath><clipPath id="8e544ec55d"><path d="M 10.148438 163 L 323 163 L 323 168 L 10.148438 168 Z M 10.148438 163 " clip-rule="nonzero"/></clipPath><clipPath id="4b5897352a"><path d="M 10.148438 193 L 247 193 L 247 197 L 10.148438 197 Z M 10.148438 193 " clip-rule="nonzero"/></clipPath><clipPath id="642ab83013"><path d="M 10.148438 222 L 171 222 L 171 227 L 10.148438 227 Z M 10.148438 222 " clip-rule="nonzero"/></clipPath><clipPath id="01e8d9a5e8"><path d="M 10.148438 251 L 241 251 L 241 256 L 10.148438 256 Z M 10.148438 251 " clip-rule="nonzero"/></clipPath><clipPath id="7eb1619f53"><path d="M 10.148438 280 L 317 280 L 317 285 L 10.148438 285 Z M 10.148438 280 " clip-rule="nonzero"/></clipPath><clipPath id="f3c86f4910"><path d="M 146 339 L 412.898438 339 L 412.898438 344 L 146 344 Z M 146 339 " clip-rule="nonzero"/></clipPath><clipPath id="e1cf46c5bc"><path d="M 217 368 L 412.898438 368 L 412.898438 373 L 217 373 Z M 217 368 " clip-rule="nonzero"/></clipPath><clipPath id="7a0c5153e3"><path d="M 287 398 L 412.898438 398 L 412.898438 402 L 287 402 Z M 287 398 " clip-rule="nonzero"/></clipPath><clipPath id="c61b4a45ac"><path d="M 358 427 L 412.898438 427 L 412.898438 431 L 358 431 Z M 358 427 " clip-rule="nonzero"/></clipPath><clipPath id="aa536985a4"><path d="M 409 320 L 412.898438 320 L 412.898438 450 L 409 450 Z M 409 320 " clip-rule="nonzero"/></clipPath><clipPath id="9d3cfaa2de"><path d="M 409 0 L 412.898438 0 L 412.898438 131 L 409 131 Z M 409 0 " clip-rule="nonzero"/></clipPath><clipPath id="5bfa1ea4b9"><rect x="0" width="417" y="0" height="450"/></clipPath><mask id="de0d1aef36"><g filter="url(#3c3a1d45ad)"><rect x="-135" width="1620" fill="#000000" y="-44.999998" height="539.99998" fill-opacity="0.0588"/></g></mask><clipPath id="898766bd95"><path d="M 4.089844 428 L 55 428 L 55 433 L 4.089844 433 Z M 4.089844 428 " clip-rule="nonzero"/></clipPath><clipPath id="b6592d862f"><path d="M 4.089844 399 L 126 399 L 126 404 L 4.089844 404 Z M 4.089844 399 " clip-rule="nonzero"/></clipPath><clipPath id="d7e72d040c"><path d="M 4.089844 370 L 196 370 L 196 375 L 4.089844 375 Z M 4.089844 370 " clip-rule="nonzero"/></clipPath><clipPath id="6613d49427"><path d="M 4.089844 340 L 267 340 L 267 345 L 4.089844 345 Z M 4.089844 340 " clip-rule="nonzero"/></clipPath><clipPath id="50f8b5cfa5"><path d="M 94 282 L 406.839844 282 L 406.839844 287 L 94 287 Z M 94 282 " clip-rule="nonzero"/></clipPath><clipPath id="4f030f76da"><path d="M 170 253 L 406.839844 253 L 406.839844 257 L 170 257 Z M 170 253 " clip-rule="nonzero"/></clipPath><clipPath id="7c68debc7b"><path d="M 246 223 L 406.839844 223 L 406.839844 228 L 246 228 Z M 246 223 " clip-rule="nonzero"/></clipPath><clipPath id="6bdf782618"><path d="M 176 194 L 406.839844 194 L 406.839844 199 L 176 199 Z M 176 194 " clip-rule="nonzero"/></clipPath><clipPath id="c441354ad5"><path d="M 100 165 L 406.839844 165 L 406.839844 170 L 100 170 Z M 100 165 " clip-rule="nonzero"/></clipPath><clipPath id="f0474600e2"><path d="M 4.089844 106 L 271 106 L 271 111 L 4.089844 111 Z M 4.089844 106 " clip-rule="nonzero"/></clipPath><clipPath id="21dff5ac41"><path d="M 4.089844 77 L 200 77 L 200 82 L 4.089844 82 Z M 4.089844 77 " clip-rule="nonzero"/></clipPath><clipPath id="c2ceb94a03"><path d="M 4.089844 48 L 130 48 L 130 52 L 4.089844 52 Z M 4.089844 48 " clip-rule="nonzero"/></clipPath><clipPath id="809615b8f0"><path d="M 4.089844 19 L 59 19 L 59 23 L 4.089844 23 Z M 4.089844 19 " clip-rule="nonzero"/></clipPath><clipPath id="75dc16891c"><path d="M 4.089844 0 L 8 0 L 8 130 L 4.089844 130 Z M 4.089844 0 " clip-rule="nonzero"/></clipPath><clipPath id="59c41d437d"><path d="M 4.089844 319 L 8 319 L 8 450 L 4.089844 450 Z M 4.089844 319 " clip-rule="nonzero"/></clipPath><clipPath id="a6f63fad3f"><rect x="0" width="417" y="0" height="450"/></clipPath></defs><g mask="url(#2b3bbd4ae6)"><g transform="matrix(1, 0, 0, 1, 171, 0)"><g clip-path="url(#5bfa1ea4b9)"><g clip-path="url(#6ec20bfee3)"><path fill="#2b2b2b" d="M 413.140625 17.449219 L 371.074219 17.449219 L 362.15625 21.164062 L 413.140625 21.164062 Z M 413.140625 17.449219 " fill-opacity="1" fill-rule="nonzero"/></g><g clip-path="url(#17261fa344)"><path fill="#2b2b2b" d="M 413.140625 46.707031 L 300.613281 46.707031 L 291.621094 50.421875 L 413.140625 50.421875 Z M 413.140625 46.707031 " fill-opacity="1" fill-rule="nonzero"/></g><g clip-path="url(#d9064e0f3b)"><path fill="#2b2b2b" d="M 413.140625 75.964844 L 230.078125 75.964844 L 221.160156 79.679688 L 413.140625 79.679688 Z M 413.140625 75.964844 " fill-opacity="1" fill-rule="nonzero"/></g><g clip-path="url(#33f9a57e67)"><path fill="#2b2b2b" d="M 413.140625 105.296875 L 159.546875 105.296875 L 150.625 109.011719 L 413.140625 109.011719 Z M 413.140625 105.296875 " fill-opacity="1" fill-rule="nonzero"/></g><path fill="#2b2b2b" d="M 398.128906 134.554688 L 89.085938 134.554688 L 80.09375 138.265625 L 388.539062 138.265625 Z M 398.128906 134.554688 " fill-opacity="1" fill-rule="nonzero"/><g clip-path="url(#8e544ec55d)"><path fill="#2b2b2b" d="M 322.09375 163.8125 L 18.550781 163.8125 L 9.632812 167.523438 L 312.507812 167.523438 Z M 322.09375 163.8125 " fill-opacity="1" fill-rule="nonzero"/></g><g clip-path="url(#4b5897352a)"><path fill="#2b2b2b" d="M 246.132812 193.070312 L 0.488281 193.070312 L 0.488281 196.78125 L 236.472656 196.78125 Z M 246.132812 193.070312 " fill-opacity="1" fill-rule="nonzero"/></g><g clip-path="url(#642ab83013)"><path fill="#2b2b2b" d="M 162.371094 225.371094 L 170.097656 222.402344 L 0.488281 222.402344 L 0.488281 226.113281 L 164.300781 226.113281 Z M 162.371094 225.371094 " fill-opacity="1" fill-rule="nonzero"/></g><g clip-path="url(#01e8d9a5e8)"><path fill="#2b2b2b" d="M 230.601562 251.660156 L 0.488281 251.660156 L 0.488281 255.371094 L 240.261719 255.371094 Z M 230.601562 251.660156 " fill-opacity="1" fill-rule="nonzero"/></g><g clip-path="url(#7eb1619f53)"><path fill="#2b2b2b" d="M 306.632812 280.914062 L 5.246094 280.914062 L 14.238281 284.628906 L 316.222656 284.628906 Z M 306.632812 280.914062 " fill-opacity="1" fill-rule="nonzero"/></g><path fill="#2b2b2b" d="M 75.855469 310.171875 L 84.847656 313.886719 L 392.257812 313.886719 L 382.59375 310.171875 Z M 75.855469 310.171875 " fill-opacity="1" fill-rule="nonzero"/><g clip-path="url(#f3c86f4910)"><path fill="#2b2b2b" d="M 155.457031 343.21875 L 413.140625 343.21875 L 413.140625 339.503906 L 146.539062 339.503906 Z M 155.457031 343.21875 " fill-opacity="1" fill-rule="nonzero"/></g><g clip-path="url(#e1cf46c5bc)"><path fill="#2b2b2b" d="M 226.140625 372.476562 L 413.140625 372.476562 L 413.140625 368.761719 L 217.148438 368.761719 Z M 226.140625 372.476562 " fill-opacity="1" fill-rule="nonzero"/></g><g clip-path="url(#7a0c5153e3)"><path fill="#2b2b2b" d="M 296.75 401.734375 L 413.140625 401.734375 L 413.140625 398.019531 L 287.828125 398.019531 Z M 296.75 401.734375 " fill-opacity="1" fill-rule="nonzero"/></g><g clip-path="url(#c61b4a45ac)"><path fill="#2b2b2b" d="M 367.433594 430.988281 L 413.140625 430.988281 L 413.140625 427.277344 L 358.4375 427.277344 Z M 367.433594 430.988281 " fill-opacity="1" fill-rule="nonzero"/></g><path fill="#2b2b2b" d="M 385.195312 11.585938 L 379.621094 13.960938 L 379.621094 141.683594 L 385.195312 139.53125 Z M 385.195312 11.585938 " fill-opacity="1" fill-rule="nonzero"/><path fill="#2b2b2b" d="M 350.1875 153.042969 L 355.761719 150.890625 L 355.761719 23.835938 L 350.1875 26.136719 Z M 350.1875 153.042969 " fill-opacity="1" fill-rule="nonzero"/><path fill="#2b2b2b" d="M 320.757812 164.40625 L 326.332031 162.253906 L 326.332031 36.089844 L 320.757812 38.390625 Z M 320.757812 164.40625 " fill-opacity="1" fill-rule="nonzero"/><path fill="#2b2b2b" d="M 261.816406 187.054688 L 267.390625 184.902344 L 267.390625 60.519531 L 261.816406 62.820312 Z M 261.816406 187.054688 " fill-opacity="1" fill-rule="nonzero"/><path fill="#2b2b2b" d="M 291.324219 175.691406 L 296.898438 173.539062 L 296.898438 48.265625 L 291.324219 50.570312 Z M 291.324219 175.691406 " fill-opacity="1" fill-rule="nonzero"/><path fill="#2b2b2b" d="M 90.792969 133.8125 L 85.21875 136.113281 L 85.21875 314.109375 L 90.792969 316.410156 Z M 90.792969 133.8125 " fill-opacity="1" fill-rule="nonzero"/><path fill="#2b2b2b" d="M 31.929688 158.242188 L 26.355469 160.617188 L 26.355469 289.679688 L 31.929688 291.980469 Z M 31.929688 158.242188 " fill-opacity="1" fill-rule="nonzero"/><path fill="#2b2b2b" d="M 61.363281 146.0625 L 55.789062 148.367188 L 55.789062 301.855469 L 61.363281 304.160156 Z M 61.363281 146.0625 " fill-opacity="1" fill-rule="nonzero"/><path fill="#2b2b2b" d="M 232.382812 198.339844 L 237.957031 196.261719 L 237.957031 72.699219 L 232.382812 75 Z M 232.382812 198.339844 " fill-opacity="1" fill-rule="nonzero"/><path fill="#2b2b2b" d="M 120.226562 121.632812 L 114.652344 123.9375 L 114.652344 326.289062 L 120.226562 328.589844 Z M 120.226562 121.632812 " fill-opacity="1" fill-rule="nonzero"/><path fill="#2b2b2b" d="M 149.660156 109.382812 L 144.085938 111.683594 L 144.085938 338.464844 L 149.660156 340.765625 Z M 149.660156 109.382812 " fill-opacity="1" fill-rule="nonzero"/><path fill="#2b2b2b" d="M 267.390625 265.839844 L 261.816406 263.6875 L 261.816406 387.253906 L 267.390625 389.554688 Z M 267.390625 265.839844 " fill-opacity="1" fill-rule="nonzero"/><path fill="#2b2b2b" d="M 202.949219 209.703125 L 208.523438 207.550781 L 208.523438 84.949219 L 202.949219 87.253906 Z M 202.949219 209.703125 " fill-opacity="1" fill-rule="nonzero"/><path fill="#2b2b2b" d="M 355.761719 299.851562 L 350.1875 297.699219 L 350.1875 423.863281 L 355.761719 426.164062 Z M 355.761719 299.851562 " fill-opacity="1" fill-rule="nonzero"/><g clip-path="url(#aa536985a4)"><path fill="#2b2b2b" d="M 413.140625 321.980469 L 409.054688 320.421875 L 409.054688 448.292969 L 413.140625 450 Z M 413.140625 321.980469 " fill-opacity="1" fill-rule="nonzero"/></g><path fill="#2b2b2b" d="M 326.332031 288.488281 L 320.757812 286.335938 L 320.757812 411.683594 L 326.332031 413.984375 Z M 326.332031 288.488281 " fill-opacity="1" fill-rule="nonzero"/><g clip-path="url(#9d3cfaa2de)"><path fill="#2b2b2b" d="M 409.054688 130.394531 L 413.140625 128.761719 L 413.140625 0 L 409.054688 1.707031 Z M 409.054688 130.394531 " fill-opacity="1" fill-rule="nonzero"/></g><path fill="#2b2b2b" d="M 385.195312 311.210938 L 379.621094 309.058594 L 379.621094 436.039062 L 385.195312 438.339844 Z M 385.195312 311.210938 " fill-opacity="1" fill-rule="nonzero"/><path fill="#2b2b2b" d="M 296.898438 277.203125 L 291.324219 275.050781 L 291.324219 399.503906 L 296.898438 401.808594 Z M 296.898438 277.203125 " fill-opacity="1" fill-rule="nonzero"/><path fill="#2b2b2b" d="M 179.09375 231.832031 L 173.519531 229.679688 L 173.519531 350.644531 L 179.09375 353.019531 Z M 179.09375 231.832031 " fill-opacity="1" fill-rule="nonzero"/><path fill="#2b2b2b" d="M 173.519531 221.0625 L 179.09375 218.910156 L 179.09375 97.128906 L 173.519531 99.503906 Z M 173.519531 221.0625 " fill-opacity="1" fill-rule="nonzero"/><path fill="#2b2b2b" d="M 208.523438 243.117188 L 202.949219 241.039062 L 202.949219 362.894531 L 208.523438 365.199219 Z M 208.523438 243.117188 " fill-opacity="1" fill-rule="nonzero"/><path fill="#2b2b2b" d="M 237.957031 254.480469 L 232.382812 252.328125 L 232.382812 375.074219 L 237.957031 377.375 Z M 237.957031 254.480469 " fill-opacity="1" fill-rule="nonzero"/></g></g></g><g mask="url(#de0d1aef36)"><g transform="matrix(1, 0, 0, 1, 762, 0)"><g clip-path="url(#a6f63fad3f)"><g clip-path="url(#898766bd95)"><path fill="#2b2b2b" d="M 3.847656 432.550781 L 45.914062 432.550781 L 54.835938 428.835938 L 3.847656 428.835938 Z M 3.847656 432.550781 " fill-opacity="1" fill-rule="nonzero"/></g><g clip-path="url(#b6592d862f)"><path fill="#2b2b2b" d="M 3.847656 403.292969 L 116.375 403.292969 L 125.367188 399.578125 L 3.847656 399.578125 Z M 3.847656 403.292969 " fill-opacity="1" fill-rule="nonzero"/></g><g clip-path="url(#d7e72d040c)"><path fill="#2b2b2b" d="M 3.847656 374.035156 L 186.910156 374.035156 L 195.828125 370.320312 L 3.847656 370.320312 Z M 3.847656 374.035156 " fill-opacity="1" fill-rule="nonzero"/></g><g clip-path="url(#6613d49427)"><path fill="#2b2b2b" d="M 3.847656 344.703125 L 257.445312 344.703125 L 266.363281 340.988281 L 3.847656 340.988281 Z M 3.847656 344.703125 " fill-opacity="1" fill-rule="nonzero"/></g><path fill="#2b2b2b" d="M 18.859375 315.445312 L 327.902344 315.445312 L 336.898438 311.734375 L 28.449219 311.734375 Z M 18.859375 315.445312 " fill-opacity="1" fill-rule="nonzero"/><g clip-path="url(#50f8b5cfa5)"><path fill="#2b2b2b" d="M 94.894531 286.1875 L 398.4375 286.1875 L 407.355469 282.476562 L 104.484375 282.476562 Z M 94.894531 286.1875 " fill-opacity="1" fill-rule="nonzero"/></g><g clip-path="url(#4f030f76da)"><path fill="#2b2b2b" d="M 170.855469 256.929688 L 416.5 256.929688 L 416.5 253.21875 L 180.519531 253.21875 Z M 170.855469 256.929688 " fill-opacity="1" fill-rule="nonzero"/></g><g clip-path="url(#7c68debc7b)"><path fill="#2b2b2b" d="M 254.621094 224.628906 L 246.890625 227.597656 L 416.5 227.597656 L 416.5 223.886719 L 252.6875 223.886719 Z M 254.621094 224.628906 " fill-opacity="1" fill-rule="nonzero"/></g><g clip-path="url(#6bdf782618)"><path fill="#2b2b2b" d="M 186.390625 198.339844 L 416.5 198.339844 L 416.5 194.628906 L 176.726562 194.628906 Z M 186.390625 198.339844 " fill-opacity="1" fill-rule="nonzero"/></g><g clip-path="url(#c441354ad5)"><path fill="#2b2b2b" d="M 110.355469 169.085938 L 411.742188 169.085938 L 402.75 165.371094 L 100.765625 165.371094 Z M 110.355469 169.085938 " fill-opacity="1" fill-rule="nonzero"/></g><path fill="#2b2b2b" d="M 341.132812 139.828125 L 332.140625 136.113281 L 24.734375 136.113281 L 34.394531 139.828125 Z M 341.132812 139.828125 " fill-opacity="1" fill-rule="nonzero"/><g clip-path="url(#f0474600e2)"><path fill="#2b2b2b" d="M 261.53125 106.78125 L 3.847656 106.78125 L 3.847656 110.496094 L 270.449219 110.496094 Z M 261.53125 106.78125 " fill-opacity="1" fill-rule="nonzero"/></g><g clip-path="url(#21dff5ac41)"><path fill="#2b2b2b" d="M 190.847656 77.523438 L 3.847656 77.523438 L 3.847656 81.238281 L 199.84375 81.238281 Z M 190.847656 77.523438 " fill-opacity="1" fill-rule="nonzero"/></g><g clip-path="url(#c2ceb94a03)"><path fill="#2b2b2b" d="M 120.238281 48.265625 L 3.847656 48.265625 L 3.847656 51.980469 L 129.160156 51.980469 Z M 120.238281 48.265625 " fill-opacity="1" fill-rule="nonzero"/></g><g clip-path="url(#809615b8f0)"><path fill="#2b2b2b" d="M 49.558594 19.011719 L 3.847656 19.011719 L 3.847656 22.722656 L 58.550781 22.722656 Z M 49.558594 19.011719 " fill-opacity="1" fill-rule="nonzero"/></g><path fill="#2b2b2b" d="M 31.792969 438.414062 L 37.367188 436.039062 L 37.367188 308.316406 L 31.792969 310.46875 Z M 31.792969 438.414062 " fill-opacity="1" fill-rule="nonzero"/><path fill="#2b2b2b" d="M 66.800781 296.957031 L 61.226562 299.109375 L 61.226562 426.164062 L 66.800781 423.863281 Z M 66.800781 296.957031 " fill-opacity="1" fill-rule="nonzero"/><path fill="#2b2b2b" d="M 96.234375 285.59375 L 90.660156 287.746094 L 90.660156 413.910156 L 96.234375 411.609375 Z M 96.234375 285.59375 " fill-opacity="1" fill-rule="nonzero"/><path fill="#2b2b2b" d="M 155.171875 262.945312 L 149.597656 265.097656 L 149.597656 389.480469 L 155.171875 387.179688 Z M 155.171875 262.945312 " fill-opacity="1" fill-rule="nonzero"/><path fill="#2b2b2b" d="M 125.664062 274.308594 L 120.089844 276.460938 L 120.089844 401.734375 L 125.664062 399.429688 Z M 125.664062 274.308594 " fill-opacity="1" fill-rule="nonzero"/><path fill="#2b2b2b" d="M 326.195312 316.1875 L 331.769531 313.886719 L 331.769531 135.890625 L 326.195312 133.589844 Z M 326.195312 316.1875 " fill-opacity="1" fill-rule="nonzero"/><path fill="#2b2b2b" d="M 385.058594 291.757812 L 390.632812 289.382812 L 390.632812 160.320312 L 385.058594 158.019531 Z M 385.058594 291.757812 " fill-opacity="1" fill-rule="nonzero"/><path fill="#2b2b2b" d="M 355.628906 303.9375 L 361.203125 301.632812 L 361.203125 148.144531 L 355.628906 145.839844 Z M 355.628906 303.9375 " fill-opacity="1" fill-rule="nonzero"/><path fill="#2b2b2b" d="M 184.605469 251.660156 L 179.03125 253.738281 L 179.03125 377.300781 L 184.605469 375 Z M 184.605469 251.660156 " fill-opacity="1" fill-rule="nonzero"/><path fill="#2b2b2b" d="M 296.761719 328.367188 L 302.335938 326.0625 L 302.335938 123.710938 L 296.761719 121.410156 Z M 296.761719 328.367188 " fill-opacity="1" fill-rule="nonzero"/><path fill="#2b2b2b" d="M 267.328125 340.617188 L 272.902344 338.316406 L 272.902344 111.535156 L 267.328125 109.234375 Z M 267.328125 340.617188 " fill-opacity="1" fill-rule="nonzero"/><path fill="#2b2b2b" d="M 149.597656 184.160156 L 155.171875 186.3125 L 155.171875 62.746094 L 149.597656 60.445312 Z M 149.597656 184.160156 " fill-opacity="1" fill-rule="nonzero"/><path fill="#2b2b2b" d="M 214.039062 240.296875 L 208.464844 242.449219 L 208.464844 365.050781 L 214.039062 362.746094 Z M 214.039062 240.296875 " fill-opacity="1" fill-rule="nonzero"/><path fill="#2b2b2b" d="M 61.226562 150.148438 L 66.800781 152.300781 L 66.800781 26.136719 L 61.226562 23.835938 Z M 61.226562 150.148438 " fill-opacity="1" fill-rule="nonzero"/><g clip-path="url(#75dc16891c)"><path fill="#2b2b2b" d="M 3.847656 128.019531 L 7.933594 129.578125 L 7.933594 1.707031 L 3.847656 0 Z M 3.847656 128.019531 " fill-opacity="1" fill-rule="nonzero"/></g><path fill="#2b2b2b" d="M 90.660156 161.511719 L 96.234375 163.664062 L 96.234375 38.316406 L 90.660156 36.015625 Z M 90.660156 161.511719 " fill-opacity="1" fill-rule="nonzero"/><g clip-path="url(#59c41d437d)"><path fill="#2b2b2b" d="M 7.933594 319.605469 L 3.847656 321.238281 L 3.847656 450 L 7.933594 448.292969 Z M 7.933594 319.605469 " fill-opacity="1" fill-rule="nonzero"/></g><path fill="#2b2b2b" d="M 31.792969 138.785156 L 37.367188 140.941406 L 37.367188 13.960938 L 31.792969 11.660156 Z M 31.792969 138.785156 " fill-opacity="1" fill-rule="nonzero"/><path fill="#2b2b2b" d="M 120.089844 172.796875 L 125.664062 174.949219 L 125.664062 50.496094 L 120.089844 48.191406 Z M 120.089844 172.796875 " fill-opacity="1" fill-rule="nonzero"/><path fill="#2b2b2b" d="M 237.894531 218.167969 L 243.472656 220.320312 L 243.472656 99.355469 L 237.894531 96.980469 Z M 237.894531 218.167969 " fill-opacity="1" fill-rule="nonzero"/><path fill="#2b2b2b" d="M 243.472656 228.9375 L 237.894531 231.089844 L 237.894531 352.871094 L 243.472656 350.496094 Z M 243.472656 228.9375 " fill-opacity="1" fill-rule="nonzero"/><path fill="#2b2b2b" d="M 208.464844 206.882812 L 214.039062 208.960938 L 214.039062 87.105469 L 208.464844 84.800781 Z M 208.464844 206.882812 " fill-opacity="1" fill-rule="nonzero"/><path fill="#2b2b2b" d="M 179.03125 195.519531 L 184.605469 197.671875 L 184.605469 74.925781 L 179.03125 72.625 Z M 179.03125 195.519531 " fill-opacity="1" fill-rule="nonzero"/></g></g></g><g fill="#c2ff00" fill-opacity="1"><g transform="translate(284.48081, 253.404553)"><g><path d="M 39.5625 -75.871094 L 7.261719 -75.871094 L 7.261719 0 L 28.179688 0 L 28.179688 -20.917969 L 39.5625 -20.917969 C 55.710938 -20.917969 67.742188 -32.515625 67.742188 -48.449219 C 67.742188 -64.273438 55.710938 -75.871094 39.5625 -75.871094 Z M 37.070312 -39.128906 L 28.179688 -39.128906 L 28.179688 -57.554688 L 37.070312 -57.554688 C 42.597656 -57.554688 46.171875 -53.761719 46.171875 -48.339844 C 46.171875 -42.921875 42.597656 -39.128906 37.070312 -39.128906 Z M 37.070312 -39.128906 "/></g></g></g><g fill="#c2ff00" fill-opacity="1"><g transform="translate(361.868492, 253.404553)"><g/></g></g><g fill="#c2ff00" fill-opacity="1"><g transform="translate(392.867715, 253.404553)"><g><path d="M 57.554688 0 L 80.640625 0 L 50.183594 -75.871094 L 29.699219 -75.871094 L -0.109375 0 L 22.328125 0 L 26.554688 -12.246094 L 53.433594 -12.246094 Z M 48.339844 -28.613281 L 31.648438 -28.613281 L 39.886719 -52.132812 Z M 48.339844 -28.613281 "/></g></g></g><g fill="#c2ff00" fill-opacity="1"><g transform="translate(480.98542, 253.404553)"><g/></g></g><g fill="#c2ff00" fill-opacity="1"><g transform="translate(511.984636, 253.404553)"><g><path d="M 48.125 0 L 71.425781 0 L 56.363281 -27.53125 C 63.839844 -31.972656 68.394531 -39.671875 68.394531 -48.992188 C 68.394531 -64.816406 56.46875 -75.871094 40.210938 -75.871094 L 7.261719 -75.871094 L 7.261719 0 L 28.179688 0 L 28.179688 -23.195312 L 35.769531 -23.195312 Z M 28.179688 -57.230469 L 37.71875 -57.230469 C 43.570312 -57.230469 46.933594 -53.761719 46.933594 -48.992188 C 46.933594 -44.332031 43.570312 -40.753906 37.71875 -40.753906 L 28.179688 -40.753906 Z M 28.179688 -57.230469 "/></g></g></g><g fill="#c2ff00" fill-opacity="1"><g transform="translate(592.732209, 253.404553)"><g/></g></g><g fill="#c2ff00" fill-opacity="1"><g transform="translate(623.731439, 253.404553)"><g><path d="M 64.164062 -75.871094 L 1.949219 -75.871094 L 1.949219 -57.011719 L 22.542969 -57.011719 L 22.542969 0 L 43.570312 0 L 43.570312 -57.011719 L 64.164062 -57.011719 Z M 64.164062 -75.871094 "/></g></g></g><g fill="#c2ff00" fill-opacity="1"><g transform="translate(697.434049, 253.404553)"><g/></g></g><g fill="#c2ff00" fill-opacity="1"><g transform="translate(728.43328, 253.404553)"><g><path d="M 57.554688 0 L 80.640625 0 L 50.183594 -75.871094 L 29.699219 -75.871094 L -0.109375 0 L 22.328125 0 L 26.554688 -12.246094 L 53.433594 -12.246094 Z M 48.339844 -28.613281 L 31.648438 -28.613281 L 39.886719 -52.132812 Z M 48.339844 -28.613281 "/></g></g></g><g fill="#c2ff00" fill-opacity="1"><g transform="translate(816.550998, 253.404553)"><g/></g></g><g fill="#c2ff00" fill-opacity="1"><g transform="translate(847.550229, 253.404553)"><g><path d="M 42.164062 -40.535156 L 42.164062 -27.3125 L 61.023438 -27.3125 C 58.636719 -21.460938 51.808594 -17.558594 43.789062 -17.558594 C 32.300781 -17.558594 24.820312 -25.796875 24.820312 -37.828125 C 24.820312 -49.96875 32.40625 -58.203125 43.789062 -58.203125 C 51.484375 -58.203125 58.3125 -54.085938 61.023438 -47.691406 L 83.023438 -47.691406 C 79.773438 -65.25 63.515625 -77.714844 43.570312 -77.714844 C 20.269531 -77.714844 3.359375 -60.914062 3.359375 -37.828125 C 3.359375 -14.742188 20.59375 1.949219 43.789062 1.949219 C 67.527344 1.949219 83.785156 -15.714844 83.785156 -40.535156 Z M 42.164062 -40.535156 "/></g></g></g><g fill="#c2ff00" fill-opacity="1"><g transform="translate(942.062619, 253.404553)"><g/></g></g><g fill="#c2ff00" fill-opacity="1"><g transform="translate(973.061849, 253.404553)"><g><path d="M 28.074219 -18.101562 L 28.074219 -29.480469 L 53 -29.480469 L 53 -46.605469 L 28.074219 -46.605469 L 28.074219 -57.769531 L 55.820312 -57.769531 L 55.820312 -75.871094 L 7.261719 -75.871094 L 7.261719 0 L 56.796875 0 L 56.796875 -18.101562 Z M 28.074219 -18.101562 "/></g></g></g><g fill="#c2ff00" fill-opacity="1"><g transform="translate(1041.976905, 253.404553)"><g/></g></g></svg>